<svg viewBox="614 5 1536 1536" xmlns="http://www.w3.org/2000/svg">
  <!-- inside circle fill -->
  <circle cx="1382" cy="773" r="685" fill="#ffffff" stroke="none"/>
  <!-- outer circle stroke -->
  <circle cx="1382" cy="773" r="685" fill="none" stroke="#141a2b" stroke-width="100"/>
  <!-- group: ears + head + visor -->
  <g transform="translate(1382,880) scale(1.570) translate(-1382,-750)">
  <!-- ears -->
  <g>
    <circle cx="1130" cy="514" r="166" fill="#131b2d"/>
    <circle cx="1629" cy="514" r="171" fill="#131b2d"/>
  </g>
  <!-- head fill -->
  <path fill="#131b2d" stroke="none" d="M 1148 635 C 1112 703, 1129 917, 1167 982 C 1197 1030, 1310 1105, 1326 1115 C 1349 1121, 1415 1121, 1438 1115 C 1454 1105, 1567 1030, 1597 982 C 1635 917, 1652 703, 1616 635 A 262 254 0 0 0 1148 635 Z"/>
  <!-- head stroke -->
  <path d="M 1148 635 C 1112 703, 1129 917, 1167 982 C 1197 1030, 1310 1105, 1326 1115 C 1349 1121, 1415 1121, 1438 1115 C 1454 1105, 1567 1030, 1597 982 C 1635 917, 1652 703, 1616 635 A 262 254 0 0 0 1148 635 Z" fill="none"/>
  <!-- visor -->
  <g>
    <path fill="#ffffff" stroke="#ffffff" stroke-width="16" d="M 1382 694 C 1435 694, 1483 677, 1509 681 C 1561 677, 1584 697, 1600 723 C 1613 752, 1622 784, 1613 817 C 1610 846, 1594 859, 1572 878 C 1549 896, 1519 910, 1490 920 C 1454 933, 1422 940, 1382 940 C 1342 940, 1310 933, 1274 920 C 1245 910, 1215 896, 1192 878 C 1170 859, 1154 846, 1151 817 C 1142 784, 1151 752, 1164 723 C 1180 697, 1203 677, 1255 681 C 1281 677, 1329 694, 1382 694 Z"/>
  </g>
  </g>
</svg>